<svg width="36" height="36" viewBox="0 0 36 36" fill="none" xmlns="http://www.w3.org/2000/svg">
<rect x="0.5" y="0.5" width="35" height="35" rx="17.5" stroke="black"/>
<mask id="path-2-inside-1_91_11" fill="white">
<path fill-rule="evenodd" clip-rule="evenodd" d="M27.6375 18.1267C27.4057 17.2656 26.7268 16.5867 25.8657 16.3549C24.2926 15.9243 18.0001 15.9243 18.0001 15.9243C18.0001 15.9243 11.7076 15.9243 10.1345 16.3383C9.29002 16.5701 8.59454 17.2656 8.36271 18.1267C7.94873 19.6998 7.94873 22.9619 7.94873 22.9619C7.94873 22.9619 7.94873 26.2406 8.36271 27.7972C8.59454 28.6583 9.27346 29.3372 10.1345 29.569C11.7242 29.9996 18.0001 29.9996 18.0001 29.9996C18.0001 29.9996 24.2926 29.9996 25.8657 29.5856C26.7268 29.3538 27.4057 28.6748 27.6375 27.8138C28.0515 26.2406 28.0515 22.9785 28.0515 22.9785C28.0515 22.9785 28.068 19.6998 27.6375 18.1267ZM23.5326 24.5559V24.8485C23.5326 25.217 23.5435 25.4988 23.5651 25.683C23.5868 25.8672 23.6302 26.0081 23.706 26.084C23.771 26.1707 23.8794 26.214 24.0311 26.214C24.2262 26.214 24.3563 26.1382 24.4321 25.9864C24.508 25.8347 24.5405 25.5855 24.5513 25.2278L25.6676 25.2928C25.6784 25.347 25.6784 25.4121 25.6784 25.4988C25.6784 26.0298 25.5375 26.4308 25.2449 26.6909C24.9523 26.951 24.5405 27.081 24.0095 27.081C23.3701 27.081 22.9257 26.8751 22.6656 26.4741C22.4055 26.0731 22.2755 25.4554 22.2755 24.6101V23.6022C22.2755 22.7352 22.4055 22.1067 22.6765 21.7057C22.9474 21.3047 23.4026 21.1096 24.042 21.1096C24.4863 21.1096 24.8331 21.1963 25.0715 21.3589C25.3099 21.5214 25.4725 21.7815 25.57 22.1175C25.6676 22.4643 25.7109 22.9411 25.7109 23.548V24.5342H23.5326V24.5559ZM23.6952 22.1283C23.6302 22.215 23.5868 22.3451 23.5651 22.5293C23.5435 22.7135 23.5326 22.9953 23.5326 23.3746V23.7864H24.4863V23.3746C24.4863 23.0062 24.4755 22.7244 24.4538 22.5293C24.4321 22.3342 24.3779 22.2042 24.3129 22.1283C24.2479 22.0525 24.1395 22.0091 24.0095 22.0091C23.8577 21.9983 23.7602 22.0416 23.6952 22.1283ZM17.2686 27.0156V21.2393H15.9681V25.8235C15.9247 25.9318 15.8489 26.0185 15.7405 26.0836C15.6321 26.1594 15.5238 26.1919 15.4154 26.1919C15.2853 26.1919 15.1878 26.1377 15.1336 26.0294C15.0794 25.921 15.0469 25.7368 15.0469 25.4767V21.2393H13.7464V25.5525C13.7464 26.0944 13.8331 26.4845 14.0174 26.7338C14.2016 26.9831 14.4834 27.1131 14.8627 27.1131C15.4154 27.1131 15.838 26.8422 16.109 26.3111H16.1415L16.2499 27.0156H17.2686ZM14.1366 20.1562H12.8469V27.0054H11.579V20.1562H10.2893V19.105H14.1366V20.1562ZM21.1918 21.3696C21.3652 21.5322 21.4952 21.7923 21.5711 22.1608C21.647 22.5184 21.6795 23.0277 21.6903 23.6888V24.5992C21.6903 25.4553 21.5819 26.0947 21.376 26.4957C21.1701 26.8967 20.8558 27.1026 20.4115 27.1026C20.1622 27.1026 19.9455 27.0376 19.7396 26.9292C19.5337 26.81 19.3819 26.6583 19.2844 26.4632H19.2519L19.1219 27.0051H18.049V18.812H19.3061V21.8573H19.3169C19.4253 21.6406 19.5879 21.4563 19.7938 21.3263C19.9997 21.1854 20.2273 21.1204 20.4657 21.1204C20.7691 21.1204 21.0184 21.2071 21.1918 21.3696ZM20.3248 25.4987C20.3573 25.2602 20.379 24.9351 20.379 24.5125H20.3898V23.7538C20.3898 23.3095 20.379 22.9627 20.3465 22.7135C20.314 22.475 20.2706 22.3016 20.1947 22.1933C20.1297 22.0957 20.0214 22.0415 19.8913 22.0415C19.7721 22.0415 19.6529 22.0957 19.5445 22.1933C19.4361 22.3016 19.3603 22.4317 19.3169 22.5834V25.8563C19.3711 25.9538 19.447 26.0297 19.5337 26.0839C19.6204 26.1381 19.7179 26.1597 19.8263 26.1597C19.9563 26.1597 20.0647 26.1056 20.1514 26.008C20.2273 25.9105 20.2923 25.7371 20.3248 25.4987Z"/>
</mask>
<path d="M25.8657 16.3549L25.6017 17.3194L25.6057 17.3205L25.8657 16.3549ZM27.6375 18.1267L26.6719 18.3867L26.673 18.3907L27.6375 18.1267ZM10.1345 16.3383L9.88003 15.3712L9.86982 15.374L10.1345 16.3383ZM8.36271 18.1267L7.39708 17.8667L7.39563 17.8722L8.36271 18.1267ZM8.36271 27.7972L7.3963 28.0542L7.39709 28.0572L8.36271 27.7972ZM10.1345 29.569L10.3959 28.6038L10.3945 28.6034L10.1345 29.569ZM18.0001 29.9996L18.0001 28.9996L18.0001 28.9996L18.0001 29.9996ZM25.8657 29.5856L26.1202 30.5527L26.1257 30.5512L25.8657 29.5856ZM27.6375 27.8138L28.6031 28.0737L28.6046 28.0683L27.6375 27.8138ZM28.0515 22.9785L27.0515 22.9734V22.9785H28.0515ZM23.5651 25.683L24.5583 25.5661L24.5583 25.5661L23.5651 25.683ZM23.706 26.084L24.506 25.484L24.4634 25.4271L24.4131 25.3769L23.706 26.084ZM24.4321 25.9864L23.5377 25.5392L23.5377 25.5392L24.4321 25.9864ZM24.5513 25.2278L24.6095 24.2295L23.5829 24.1697L23.5518 25.1975L24.5513 25.2278ZM25.6676 25.2928L26.6482 25.0967L26.4967 24.3394L25.7257 24.2945L25.6676 25.2928ZM22.6656 26.4741L21.8267 27.0183L21.8267 27.0183L22.6656 26.4741ZM25.57 22.1175L26.5327 21.8467L26.5304 21.8387L25.57 22.1175ZM25.7109 24.5342V25.5342H26.7109V24.5342H25.7109ZM23.5326 24.5342V23.5342H22.5326V24.5342H23.5326ZM23.5651 22.5293L24.5583 22.6462L24.5583 22.6462L23.5651 22.5293ZM23.6952 22.1283L22.8952 21.5283L22.8952 21.5283L23.6952 22.1283ZM23.5326 23.7864H22.5326V24.7864H23.5326V23.7864ZM24.4863 23.7864V24.7864H25.4863V23.7864H24.4863ZM24.3129 22.1283L23.5536 22.7791L23.5537 22.7791L24.3129 22.1283ZM24.0095 22.0091L23.9382 23.0066L23.9738 23.0091H24.0095V22.0091ZM17.2686 21.2393H18.2686V20.2393H17.2686V21.2393ZM17.2686 27.0156V28.0156H18.2686V27.0156H17.2686ZM15.9681 21.2393V20.2393H14.9681V21.2393H15.9681ZM15.9681 25.8235L16.8966 26.1949L16.9681 26.016V25.8235H15.9681ZM15.7405 26.0836L15.226 25.2261L15.1959 25.2442L15.167 25.2643L15.7405 26.0836ZM15.0469 21.2393H16.0469V20.2393H15.0469V21.2393ZM13.7464 21.2393V20.2393H12.7464V21.2393H13.7464ZM16.109 26.3111V25.3111H15.4965L15.2182 25.8567L16.109 26.3111ZM16.1415 26.3111L17.1299 26.1591L16.9994 25.3111H16.1415V26.3111ZM16.2499 27.0156L15.2615 27.1676L15.3919 28.0156H16.2499V27.0156ZM12.8469 20.1562V19.1562H11.8469V20.1562H12.8469ZM14.1366 20.1562V21.1562H15.1366V20.1562H14.1366ZM12.8469 27.0054V28.0054H13.8469V27.0054H12.8469ZM11.579 27.0054H10.579V28.0054H11.579V27.0054ZM11.579 20.1562H12.579V19.1562H11.579V20.1562ZM10.2893 20.1562H9.28931V21.1562H10.2893V20.1562ZM10.2893 19.105V18.105H9.28931V19.105H10.2893ZM14.1366 19.105H15.1366V18.105H14.1366V19.105ZM21.5711 22.1608L20.5916 22.3624L20.5929 22.3683L21.5711 22.1608ZM21.1918 21.3696L21.8757 20.6401L21.8757 20.6401L21.1918 21.3696ZM21.6903 23.6888H22.6903V23.6806L22.6902 23.6724L21.6903 23.6888ZM21.376 26.4957L20.4865 26.0389L20.4865 26.0389L21.376 26.4957ZM19.7396 26.9292L19.2385 27.7946L19.256 27.8047L19.2738 27.8141L19.7396 26.9292ZM19.2844 26.4632L20.1788 26.016L19.9024 25.4632H19.2844V26.4632ZM19.2519 26.4632V25.4632H18.4635L18.2795 26.2298L19.2519 26.4632ZM19.1219 27.0051V28.0051H19.9103L20.0942 27.2384L19.1219 27.0051ZM18.049 27.0051H17.049V28.0051H18.049V27.0051ZM18.049 18.812V17.812H17.049V18.812H18.049ZM19.3061 18.812H20.3061V17.812H19.3061V18.812ZM19.3061 21.8573H18.3061V22.8573H19.3061V21.8573ZM19.3169 21.8573V22.8573H19.935L20.2114 22.3045L19.3169 21.8573ZM19.7938 21.3263L20.3278 22.1718L20.3433 22.162L20.3584 22.1516L19.7938 21.3263ZM20.379 24.5125V23.5125H19.379V24.5125H20.379ZM20.3248 25.4987L21.3156 25.6338L21.3156 25.6338L20.3248 25.4987ZM20.3898 24.5125V25.5125H21.3898V24.5125H20.3898ZM20.3465 22.7135L21.3381 22.5841L21.3373 22.5784L20.3465 22.7135ZM20.1947 22.1933L19.3627 22.748L19.369 22.7574L19.3755 22.7667L20.1947 22.1933ZM19.5445 22.1933L18.8755 21.45L18.856 21.4676L18.8374 21.4862L19.5445 22.1933ZM19.3169 22.5834L18.3554 22.3087L18.3169 22.4434V22.5834H19.3169ZM19.3169 25.8563H18.3169V26.1154L18.4428 26.3419L19.3169 25.8563ZM19.5337 26.0839L20.0637 25.2359L20.0637 25.2359L19.5337 26.0839ZM20.1514 26.008L20.8988 26.6724L20.9206 26.6479L20.9408 26.622L20.1514 26.008ZM25.6057 17.3205C26.1226 17.4596 26.5327 17.8697 26.6719 18.3867L28.6031 17.8667C28.2786 16.6615 27.3309 15.7137 26.1257 15.3892L25.6057 17.3205ZM18.0001 15.9243C18.0001 16.9243 18.0001 16.9243 18.0001 16.9243C18.0002 16.9243 18.0002 16.9243 18.0003 16.9243C18.0004 16.9243 18.0007 16.9243 18.001 16.9243C18.0017 16.9243 18.0027 16.9243 18.0041 16.9243C18.007 16.9243 18.0113 16.9243 18.0171 16.9243C18.0287 16.9243 18.0461 16.9244 18.0689 16.9244C18.1146 16.9245 18.1821 16.9247 18.2688 16.9251C18.4421 16.926 18.692 16.9276 18.9969 16.931C19.6072 16.9377 20.4361 16.951 21.3126 16.9777C22.1907 17.0044 23.1083 17.0442 23.8986 17.1032C24.7174 17.1643 25.3142 17.2407 25.6017 17.3194L26.1297 15.3903C25.6307 15.2538 24.851 15.1687 24.0475 15.1087C23.2155 15.0466 22.265 15.0057 21.3734 14.9786C20.4801 14.9514 19.6375 14.9379 19.0188 14.9311C18.7093 14.9277 18.4553 14.926 18.2784 14.9252C18.1899 14.9247 18.1207 14.9245 18.0734 14.9244C18.0498 14.9244 18.0316 14.9243 18.0193 14.9243C18.0131 14.9243 18.0084 14.9243 18.0052 14.9243C18.0036 14.9243 18.0024 14.9243 18.0015 14.9243C18.0011 14.9243 18.0008 14.9243 18.0005 14.9243C18.0004 14.9243 18.0003 14.9243 18.0002 14.9243C18.0002 14.9243 18.0001 14.9243 18.0001 15.9243ZM10.389 17.3054C10.6801 17.2288 11.2801 17.1552 12.0988 17.0964C12.8898 17.0396 13.8081 17.0013 14.6865 16.9756C15.5632 16.95 16.3924 16.9372 17.0029 16.9307C17.3079 16.9275 17.5578 16.9259 17.7313 16.9251C17.818 16.9247 17.8855 16.9245 17.9312 16.9244C17.9541 16.9244 17.9715 16.9243 17.9831 16.9243C17.9889 16.9243 17.9932 16.9243 17.9961 16.9243C17.9975 16.9243 17.9985 16.9243 17.9992 16.9243C17.9996 16.9243 17.9998 16.9243 18 16.9243C18 16.9243 18.0001 16.9243 18.0001 16.9243C18.0001 16.9243 18.0001 16.9243 18.0001 15.9243C18.0001 14.9243 18.0001 14.9243 18 14.9243C17.9999 14.9243 17.9998 14.9243 17.9997 14.9243C17.9995 14.9243 17.9991 14.9243 17.9987 14.9243C17.9979 14.9243 17.9966 14.9243 17.995 14.9243C17.9918 14.9243 17.9871 14.9243 17.981 14.9243C17.9686 14.9243 17.9505 14.9244 17.9269 14.9244C17.8796 14.9245 17.8105 14.9247 17.722 14.9251C17.5452 14.926 17.2913 14.9276 16.9818 14.9308C16.3633 14.9374 15.521 14.9504 14.628 14.9765C13.7366 15.0026 12.7868 15.0419 11.9556 15.1015C11.152 15.1592 10.3755 15.2408 9.88004 15.3712L10.389 17.3054ZM9.32832 18.3867C9.4683 17.8667 9.89805 17.4402 10.3992 17.3026L9.86982 15.374C8.68198 15.7 7.72077 16.6645 7.39709 17.8667L9.32832 18.3867ZM7.94873 22.9619C8.94873 22.9619 8.94873 22.962 8.94873 22.962C8.94873 22.962 8.94873 22.962 8.94873 22.962C8.94873 22.962 8.94873 22.962 8.94873 22.9618C8.94873 22.9616 8.94873 22.9612 8.94873 22.9606C8.94873 22.9593 8.94874 22.9573 8.94874 22.9546C8.94875 22.949 8.94878 22.9405 8.94882 22.9291C8.94892 22.9063 8.94911 22.872 8.9495 22.8275C8.95028 22.7384 8.95185 22.6084 8.95501 22.4472C8.96133 22.1244 8.97397 21.6783 8.99917 21.1853C9.05108 20.1701 9.15216 19.0561 9.32978 18.3812L7.39563 17.8722C7.15928 18.7703 7.05337 20.074 7.00178 21.0832C6.97524 21.6023 6.96201 22.0701 6.95539 22.4081C6.95208 22.5773 6.95041 22.7145 6.94958 22.8099C6.94916 22.8577 6.94895 22.895 6.94884 22.9208C6.94879 22.9336 6.94876 22.9436 6.94875 22.9505C6.94874 22.954 6.94873 22.9567 6.94873 22.9586C6.94873 22.9595 6.94873 22.9603 6.94873 22.9608C6.94873 22.9611 6.94873 22.9614 6.94873 22.9615C6.94873 22.9616 6.94873 22.9617 6.94873 22.9618C6.94873 22.9619 6.94873 22.9619 7.94873 22.9619ZM9.32911 27.5402C9.15227 26.8753 9.05113 25.7632 8.99918 24.7449C8.97397 24.2509 8.96133 23.8032 8.95501 23.4791C8.95185 23.3172 8.95028 23.1866 8.9495 23.0971C8.94911 23.0524 8.94892 23.0179 8.94882 22.995C8.94878 22.9835 8.94875 22.9749 8.94874 22.9694C8.94874 22.9666 8.94873 22.9646 8.94873 22.9633C8.94873 22.9627 8.94873 22.9623 8.94873 22.962C8.94873 22.9619 8.94873 22.9619 8.94873 22.9618C8.94873 22.9618 8.94873 22.9619 8.94873 22.9619C8.94873 22.9619 8.94873 22.9619 7.94873 22.9619C6.94873 22.9619 6.94873 22.962 6.94873 22.9621C6.94873 22.9621 6.94873 22.9622 6.94873 22.9623C6.94873 22.9625 6.94873 22.9628 6.94873 22.963C6.94873 22.9636 6.94873 22.9644 6.94873 22.9653C6.94873 22.9672 6.94874 22.9699 6.94875 22.9734C6.94876 22.9804 6.94879 22.9904 6.94884 23.0033C6.94895 23.0291 6.94916 23.0666 6.94958 23.1146C6.95041 23.2105 6.95208 23.3482 6.95539 23.5181C6.962 23.8573 6.97524 24.3266 7.00178 24.8468C7.05332 25.857 7.15916 27.1626 7.3963 28.0542L9.32911 27.5402ZM10.3945 28.6034C9.87759 28.4642 9.46749 28.0541 9.32832 27.5372L7.39709 28.0572C7.72158 29.2624 8.66933 30.2102 9.87456 30.5346L10.3945 28.6034ZM18.0001 29.9996C18.0001 28.9996 18.0001 28.9996 18.0001 28.9996C18.0001 28.9996 18 28.9996 18 28.9996C17.9998 28.9996 17.9996 28.9996 17.9992 28.9996C17.9986 28.9996 17.9975 28.9996 17.9961 28.9996C17.9933 28.9996 17.9889 28.9996 17.9832 28.9995C17.9716 28.9995 17.9543 28.9995 17.9315 28.9995C17.886 28.9994 17.8186 28.9991 17.7321 28.9987C17.5592 28.9979 17.3099 28.9962 17.0056 28.9929C16.3966 28.9862 15.5693 28.9729 14.6939 28.9462C13.8168 28.9195 12.8997 28.8797 12.1085 28.8207C11.2897 28.7596 10.6892 28.6832 10.3959 28.6038L9.87312 30.5343C10.3747 30.6701 11.1548 30.7551 11.9598 30.8152C12.7925 30.8773 13.7424 30.9182 14.633 30.9453C15.5253 30.9724 16.3663 30.986 16.9837 30.9928C17.2926 30.9962 17.546 30.9979 17.7225 30.9987C17.8108 30.9991 17.8798 30.9993 17.927 30.9995C17.9505 30.9995 17.9687 30.9995 17.981 30.9995C17.9871 30.9996 17.9918 30.9996 17.995 30.9996C17.9966 30.9996 17.9978 30.9996 17.9987 30.9996C17.9991 30.9996 17.9995 30.9996 17.9997 30.9996C17.9998 30.9996 17.9999 30.9996 18 30.9996C18.0001 30.9996 18.0001 30.9996 18.0001 29.9996ZM25.6112 28.6185C25.3201 28.6951 24.7201 28.7687 23.9014 28.8275C23.1104 28.8843 22.1921 28.9226 21.3138 28.9482C20.437 28.9739 19.6078 28.9867 18.9974 28.9931C18.6923 28.9964 18.4424 28.998 18.2689 28.9988C18.1822 28.9992 18.1147 28.9994 18.069 28.9995C18.0461 28.9995 18.0287 28.9995 18.0172 28.9995C18.0114 28.9996 18.007 28.9996 18.0042 28.9996C18.0027 28.9996 18.0017 28.9996 18.001 28.9996C18.0007 28.9996 18.0004 28.9996 18.0003 28.9996C18.0002 28.9996 18.0002 28.9996 18.0001 28.9996C18.0001 28.9996 18.0001 28.9996 18.0001 29.9996C18.0001 30.9996 18.0002 30.9996 18.0002 30.9996C18.0003 30.9996 18.0004 30.9996 18.0005 30.9996C18.0008 30.9996 18.0011 30.9996 18.0015 30.9996C18.0024 30.9996 18.0036 30.9996 18.0052 30.9996C18.0084 30.9996 18.0131 30.9996 18.0193 30.9995C18.0316 30.9995 18.0497 30.9995 18.0733 30.9995C18.1206 30.9994 18.1898 30.9992 18.2782 30.9987C18.455 30.9979 18.7089 30.9963 19.0184 30.993C19.637 30.9865 20.4792 30.9735 21.3722 30.9474C22.2636 30.9213 23.2134 30.882 24.0446 30.8223C24.8482 30.7647 25.6247 30.6831 26.1202 30.5527L25.6112 28.6185ZM26.6719 27.5538C26.5327 28.0707 26.1226 28.4808 25.6057 28.62L26.1257 30.5512C27.3309 30.2267 28.2786 29.279 28.6031 28.0737L26.6719 27.5538ZM28.0515 22.9785C27.0515 22.9785 27.0515 22.9784 27.0515 22.9784C27.0515 22.9784 27.0515 22.9784 27.0515 22.9784C27.0515 22.9784 27.0515 22.9785 27.0515 22.9786C27.0515 22.9788 27.0515 22.9792 27.0515 22.9799C27.0515 22.9811 27.0515 22.9831 27.0515 22.9859C27.0515 22.9914 27.0514 22.9999 27.0514 23.0114C27.0513 23.0342 27.0511 23.0685 27.0507 23.113C27.0499 23.2021 27.0484 23.332 27.0452 23.4932C27.0389 23.8161 27.0263 24.2621 27.001 24.7552C26.9491 25.7704 26.8481 26.8843 26.6704 27.5593L28.6046 28.0683C28.8409 27.1701 28.9468 25.8664 28.9984 24.8573C29.025 24.3381 29.0382 23.8703 29.0448 23.5324C29.0481 23.3632 29.0498 23.226 29.0506 23.1305C29.0511 23.0828 29.0513 23.0454 29.0514 23.0197C29.0514 23.0068 29.0515 22.9968 29.0515 22.9899C29.0515 22.9865 29.0515 22.9838 29.0515 22.9819C29.0515 22.9809 29.0515 22.9802 29.0515 22.9796C29.0515 22.9793 29.0515 22.9791 29.0515 22.9789C29.0515 22.9788 29.0515 22.9787 29.0515 22.9787C29.0515 22.9786 29.0515 22.9785 28.0515 22.9785ZM26.673 18.3907C26.856 19.0593 26.9573 20.1716 27.0071 21.1913C27.0313 21.6857 27.0424 22.1332 27.0475 22.4572C27.05 22.619 27.051 22.7494 27.0514 22.8387C27.0516 22.8834 27.0516 22.9178 27.0516 22.9406C27.0516 22.9521 27.0515 22.9606 27.0515 22.9661C27.0515 22.9689 27.0515 22.9709 27.0515 22.9721C27.0515 22.9727 27.0515 22.9732 27.0515 22.9734C27.0515 22.9735 27.0515 22.9735 27.0515 22.9736C27.0515 22.9736 27.0515 22.9735 27.0515 22.9735C27.0515 22.9735 27.0515 22.9734 28.0515 22.9785C29.0515 22.9835 29.0515 22.9835 29.0515 22.9834C29.0515 22.9833 29.0515 22.9832 29.0515 22.9831C29.0515 22.9829 29.0515 22.9827 29.0515 22.9824C29.0515 22.9819 29.0515 22.9811 29.0515 22.9801C29.0515 22.9782 29.0515 22.9754 29.0515 22.972C29.0515 22.965 29.0516 22.9549 29.0516 22.942C29.0516 22.916 29.0516 22.8784 29.0514 22.8304C29.0509 22.7343 29.0499 22.5962 29.0472 22.426C29.0419 22.0861 29.0303 21.6157 29.0048 21.0937C28.9552 20.0808 28.8496 18.7672 28.602 17.8627L26.673 18.3907ZM24.5326 24.8485V24.5559H22.5326V24.8485H24.5326ZM24.5583 25.5661C24.5437 25.4425 24.5326 25.2087 24.5326 24.8485H22.5326C22.5326 25.2252 22.5432 25.555 22.572 25.7998L24.5583 25.5661ZM24.4131 25.3769C24.4696 25.4333 24.5052 25.4869 24.5263 25.5244C24.5474 25.5618 24.5578 25.5899 24.562 25.6022C24.5692 25.6234 24.5642 25.6166 24.5583 25.5661L22.572 25.7998C22.596 26.0039 22.663 26.4552 22.9989 26.7911L24.4131 25.3769ZM24.0311 25.214C24.0462 25.214 24.1139 25.2156 24.2075 25.253C24.3099 25.294 24.42 25.3693 24.506 25.484L22.906 26.684C23.228 27.1133 23.6988 27.214 24.0311 27.214V25.214ZM23.5377 25.5392C23.5759 25.4628 23.653 25.3616 23.7802 25.2889C23.9001 25.2203 24.0003 25.214 24.0311 25.214V27.214C24.257 27.214 24.5198 27.1698 24.7725 27.0254C25.0325 26.8768 25.2125 26.6617 25.3265 26.4336L23.5377 25.5392ZM23.5518 25.1975C23.5469 25.358 23.5378 25.4654 23.5272 25.5355C23.5156 25.6131 23.5089 25.5968 23.5377 25.5392L25.3265 26.4337C25.5135 26.0597 25.5406 25.5983 25.5509 25.2581L23.5518 25.1975ZM25.7257 24.2945L24.6095 24.2295L24.4932 26.2261L25.6094 26.2911L25.7257 24.2945ZM26.6784 25.4988C26.6784 25.4481 26.6828 25.2697 26.6482 25.0967L24.687 25.489C24.6822 25.4651 24.68 25.4467 24.6789 25.4363C24.6779 25.4261 24.6778 25.421 24.6779 25.4236C24.678 25.4263 24.6782 25.4329 24.6783 25.4465C24.6783 25.453 24.6784 25.4605 24.6784 25.4693C24.6784 25.4783 24.6784 25.4877 24.6784 25.4988H26.6784ZM25.9093 27.4383C26.4913 26.9209 26.6784 26.195 26.6784 25.4988H24.6784C24.6784 25.8646 24.5837 25.9406 24.5806 25.9435L25.9093 27.4383ZM24.0095 28.081C24.6973 28.081 25.377 27.9114 25.9093 27.4383L24.5806 25.9435C24.5276 25.9905 24.3837 26.081 24.0095 26.081V28.081ZM21.8267 27.0183C22.3259 27.788 23.146 28.081 24.0095 28.081V26.081C23.5941 26.081 23.5255 25.9622 23.5046 25.9299L21.8267 27.0183ZM21.2755 24.6101C21.2755 25.5205 21.4086 26.3737 21.8267 27.0183L23.5046 25.9299C23.4025 25.7725 23.2755 25.3903 23.2755 24.6101H21.2755ZM21.2755 23.6022V24.6101H23.2755V23.6022H21.2755ZM21.8479 21.1458C21.4055 21.8006 21.2755 22.6791 21.2755 23.6022H23.2755C23.2755 22.7913 23.4056 22.4127 23.5051 22.2655L21.8479 21.1458ZM24.042 20.1096C23.1974 20.1096 22.3661 20.3789 21.8479 21.1458L23.5051 22.2655C23.5287 22.2305 23.6078 22.1096 24.042 22.1096V20.1096ZM25.6349 20.5327C25.1682 20.2145 24.5958 20.1096 24.042 20.1096V22.1096C24.3768 22.1096 24.498 22.1782 24.5082 22.1851L25.6349 20.5327ZM26.5304 21.8387C26.39 21.3553 26.1214 20.8644 25.6349 20.5327L24.5082 22.1851C24.5085 22.1853 24.5104 22.1866 24.5142 22.1906C24.5181 22.1946 24.5253 22.2029 24.5348 22.2175C24.5543 22.2476 24.5827 22.3033 24.6097 22.3963L26.5304 21.8387ZM26.7109 23.548C26.7109 22.9126 26.6677 22.3267 26.5327 21.8467L24.6074 22.3882C24.6675 22.6019 24.7109 22.9697 24.7109 23.548H26.7109ZM26.7109 24.5342V23.548H24.7109V24.5342H26.7109ZM23.5326 25.5342H25.7109V23.5342H23.5326V25.5342ZM24.5326 24.5559V24.5342H22.5326V24.5559H24.5326ZM24.5583 22.6462C24.5636 22.6011 24.5685 22.5904 24.5645 22.6026C24.5603 22.6154 24.5425 22.6653 24.4952 22.7283L22.8952 21.5283C22.6771 21.8191 22.6026 22.1523 22.572 22.4125L24.5583 22.6462ZM24.5326 23.3746C24.5326 23.0029 24.5438 22.7695 24.5583 22.6462L22.572 22.4125C22.5431 22.6576 22.5326 22.9877 22.5326 23.3746H24.5326ZM24.5326 23.7864V23.3746H22.5326V23.7864H24.5326ZM24.4863 22.7864H23.5326V24.7864H24.4863V22.7864ZM23.4863 23.3746V23.7864H25.4863V23.3746H23.4863ZM23.4599 22.6397C23.4754 22.7792 23.4863 23.0171 23.4863 23.3746H25.4863C25.4863 22.9952 25.4755 22.6696 25.4477 22.4189L23.4599 22.6397ZM23.5537 22.7791C23.4933 22.7087 23.4687 22.65 23.4609 22.6289C23.4527 22.6065 23.4563 22.607 23.4599 22.6397L25.4477 22.4189C25.4135 22.1115 25.3153 21.7612 25.0722 21.4775L23.5537 22.7791ZM24.0095 23.0091C23.9333 23.0091 23.7281 22.9826 23.5536 22.7791L25.0722 21.4775C24.7677 21.1223 24.3457 21.0091 24.0095 21.0091V23.0091ZM24.4952 22.7283C24.4252 22.8217 24.3202 22.9097 24.187 22.9623C24.0643 23.0107 23.9692 23.0088 23.9382 23.0066L24.0807 21.0117C23.6724 20.9825 23.2093 21.1095 22.8952 21.5283L24.4952 22.7283ZM16.2686 21.2393V27.0156H18.2686V21.2393H16.2686ZM15.9681 22.2393H17.2686V20.2393H15.9681V22.2393ZM16.9681 25.8235V21.2393H14.9681V25.8235H16.9681ZM16.255 26.9411C16.5343 26.7735 16.7652 26.5233 16.8966 26.1949L15.0396 25.4521C15.0594 25.4027 15.0886 25.3541 15.1261 25.3113C15.163 25.2691 15.1996 25.2419 15.226 25.2261L16.255 26.9411ZM15.4154 27.1919C15.7412 27.1919 16.0478 27.0891 16.314 26.9028L15.167 25.2643C15.187 25.2503 15.2211 25.2307 15.2689 25.2152C15.3172 25.1995 15.3675 25.1919 15.4154 25.1919V27.1919ZM14.2392 26.4766C14.4862 26.9707 14.962 27.1919 15.4154 27.1919V25.1919C15.4891 25.1919 15.6105 25.2078 15.7422 25.283C15.8795 25.3615 15.9739 25.474 16.028 25.5822L14.2392 26.4766ZM14.0469 25.4767C14.0469 25.7794 14.0785 26.1551 14.2392 26.4766L16.028 25.5822C16.0465 25.6191 16.0547 25.6452 16.0572 25.6539C16.0599 25.6633 16.0592 25.6629 16.0571 25.6502C16.0528 25.6235 16.0469 25.5677 16.0469 25.4767H14.0469ZM14.0469 21.2393V25.4767H16.0469V21.2393H14.0469ZM13.7464 22.2393H15.0469V20.2393H13.7464V22.2393ZM14.7464 25.5525V21.2393H12.7464V25.5525H14.7464ZM14.8215 26.1394C14.8329 26.1547 14.8111 26.1329 14.7879 26.031C14.7646 25.9288 14.7464 25.7746 14.7464 25.5525H12.7464C12.7464 26.1569 12.8343 26.8156 13.2132 27.3282L14.8215 26.1394ZM14.8627 26.1131C14.7866 26.1131 14.7665 26.1002 14.7787 26.1057C14.7846 26.1083 14.7938 26.1135 14.8037 26.1216C14.8136 26.1295 14.8194 26.1365 14.8215 26.1394L13.2132 27.3282C13.6223 27.8816 14.2326 28.1131 14.8627 28.1131V26.1131ZM15.2182 25.8567C15.1023 26.0839 15.006 26.1131 14.8627 26.1131V28.1131C15.8247 28.1131 16.5738 27.6005 16.9997 26.7656L15.2182 25.8567ZM16.1415 25.3111H16.109V27.3111H16.1415V25.3111ZM17.2382 26.8635L17.1299 26.1591L15.1531 26.4632L15.2615 27.1676L17.2382 26.8635ZM17.2686 26.0156H16.2499V28.0156H17.2686V26.0156ZM12.8469 21.1562H14.1366V19.1562H12.8469V21.1562ZM13.8469 27.0054V20.1562H11.8469V27.0054H13.8469ZM11.579 28.0054H12.8469V26.0054H11.579V28.0054ZM10.579 20.1562V27.0054H12.579V20.1562H10.579ZM10.2893 21.1562H11.579V19.1562H10.2893V21.1562ZM9.28931 19.105V20.1562H11.2893V19.105H9.28931ZM14.1366 18.105H10.2893V20.105H14.1366V18.105ZM15.1366 20.1562V19.105H13.1366V20.1562H15.1366ZM22.5506 21.9591C22.4513 21.4769 22.2545 20.9952 21.8757 20.6401L20.5078 22.0992C20.4906 22.083 20.4984 22.0833 20.5181 22.124C20.5384 22.1658 20.5667 22.2411 20.5916 22.3624L22.5506 21.9591ZM22.6902 23.6724C22.6793 23.0087 22.6471 22.414 22.5493 21.9533L20.5929 22.3683C20.6468 22.6227 20.6796 23.0468 20.6904 23.7052L22.6902 23.6724ZM22.6903 24.5992V23.6888H20.6903V24.5992H22.6903ZM22.2656 26.9525C22.5825 26.3354 22.6903 25.5007 22.6903 24.5992H20.6903C20.6903 25.4099 20.5814 25.854 20.4865 26.0389L22.2656 26.9525ZM20.4115 28.1026C20.794 28.1026 21.1761 28.0118 21.5196 27.7935C21.8596 27.5774 22.0995 27.276 22.2656 26.9525L20.4865 26.0389C20.4662 26.0784 20.4507 26.0984 20.4441 26.1061C20.4381 26.113 20.4388 26.1106 20.4468 26.1056C20.455 26.1003 20.4614 26.0984 20.4612 26.0984C20.46 26.0987 20.4452 26.1026 20.4115 26.1026V28.1026ZM19.2738 27.8141C19.5982 27.9848 19.9737 28.1026 20.4115 28.1026V26.1026C20.3507 26.1026 20.2928 26.0903 20.2053 26.0443L19.2738 27.8141ZM18.39 26.9104C18.588 27.3064 18.8906 27.5932 19.2385 27.7946L20.2406 26.0638C20.2049 26.0431 20.1895 26.0287 20.1847 26.0238C20.1809 26.0199 20.1801 26.0185 20.1788 26.016L18.39 26.9104ZM19.2519 27.4632H19.2844V25.4632H19.2519V27.4632ZM20.0942 27.2384L20.2243 26.6966L18.2795 26.2298L18.1495 26.7717L20.0942 27.2384ZM18.049 28.0051H19.1219V26.0051H18.049V28.0051ZM17.049 18.812V27.0051H19.049V18.812H17.049ZM19.3061 17.812H18.049V19.812H19.3061V17.812ZM20.3061 21.8573V18.812H18.3061V21.8573H20.3061ZM19.3169 20.8573H19.3061V22.8573H19.3169V20.8573ZM19.2598 20.4808C18.8926 20.7127 18.6086 21.0378 18.4225 21.4101L20.2114 22.3045C20.242 22.2433 20.2831 22.1999 20.3278 22.1718L19.2598 20.4808ZM20.4657 20.1204C20.0363 20.1204 19.6098 20.2405 19.2291 20.501L20.3584 22.1516C20.3777 22.1384 20.393 22.1319 20.4059 22.128C20.4193 22.124 20.4382 22.1204 20.4657 22.1204V20.1204ZM21.8757 20.6401C21.4727 20.2623 20.9552 20.1204 20.4657 20.1204V22.1204C20.5233 22.1204 20.5494 22.1287 20.5518 22.1295C20.5528 22.1299 20.5481 22.1283 20.5395 22.1232C20.5308 22.1181 20.5197 22.1102 20.5078 22.0992L21.8757 20.6401ZM19.379 24.5125C19.379 24.9042 19.3587 25.1821 19.334 25.3636L21.3156 25.6338C21.3559 25.3383 21.379 24.966 21.379 24.5125H19.379ZM20.3898 23.5125H20.379V25.5125H20.3898V23.5125ZM19.3898 23.7538V24.5125H21.3898V23.7538H19.3898ZM19.3549 22.8428C19.3782 23.0218 19.3898 23.3114 19.3898 23.7538H21.3898C21.3898 23.3076 21.3798 22.9037 21.3381 22.5841L19.3549 22.8428ZM19.3755 22.7667C19.3487 22.7284 19.3343 22.6982 19.3281 22.6839C19.3219 22.6696 19.3214 22.6652 19.3242 22.6753C19.327 22.6852 19.3317 22.704 19.3374 22.7342C19.3432 22.7643 19.3493 22.8018 19.3556 22.8486L21.3373 22.5784C21.3053 22.344 21.2429 21.9469 21.014 21.6198L19.3755 22.7667ZM19.8913 23.0415C19.817 23.0415 19.7211 23.0257 19.6202 22.9753C19.5173 22.9238 19.4275 22.8452 19.3627 22.748L21.0268 21.6386C20.7536 21.2288 20.3126 21.0415 19.8913 21.0415V23.0415ZM20.2135 22.9366C20.1943 22.9538 20.0854 23.0415 19.8913 23.0415V21.0415C19.4587 21.0415 19.1114 21.2377 18.8755 21.45L20.2135 22.9366ZM20.2784 22.8581C20.2785 22.8581 20.2779 22.8599 20.2765 22.8633C20.2751 22.8667 20.273 22.8711 20.2701 22.876C20.264 22.8865 20.2571 22.8949 20.2516 22.9004L18.8374 21.4862C18.6052 21.7184 18.444 21.9986 18.3554 22.3087L20.2784 22.8581ZM20.3169 25.8563V22.5834H18.3169V25.8563H20.3169ZM20.0637 25.2359C20.1115 25.2658 20.1581 25.3112 20.1911 25.3707L18.4428 26.3419C18.5841 26.5964 18.7824 26.7936 19.0037 26.9319L20.0637 25.2359ZM19.8263 25.1597C19.8549 25.1597 19.9535 25.167 20.0637 25.2359L19.0037 26.9319C19.2872 27.1091 19.5809 27.1597 19.8263 27.1597V25.1597ZM19.404 25.3437C19.4376 25.3058 19.4938 25.2562 19.576 25.2172C19.6604 25.1771 19.7479 25.1597 19.8263 25.1597V27.1597C20.2725 27.1597 20.6436 26.9595 20.8988 26.6724L19.404 25.3437ZM19.334 25.3635C19.3296 25.3952 19.3248 25.4206 19.3203 25.44C19.3158 25.4596 19.312 25.4715 19.3103 25.4765C19.3084 25.4818 19.3096 25.4771 19.316 25.4647C19.3221 25.4528 19.3363 25.4272 19.362 25.3941L20.9408 26.622C21.1715 26.3253 21.2723 25.9517 21.3156 25.6338L19.334 25.3635Z" fill="black" mask="url(#path-2-inside-1_91_11)"/>
<path d="M16.7092 12.7769L16.7093 12.7769L16.7082 12.7732C16.6189 12.4697 16.5659 12.0248 16.5659 11.4404V10.6059C16.5659 10.0223 16.6275 9.58055 16.7252 9.26644C16.8275 8.97116 16.9631 8.80379 17.1089 8.7053C17.167 8.66858 17.2342 8.63586 17.3125 8.60879C17.1739 8.72254 17.0829 8.87021 17.0277 9.023C16.9177 9.31096 16.8881 9.69322 16.8881 10.1074V11.9064C16.8881 12.3216 16.9158 12.7214 17.0293 13.0061C17.088 13.1666 17.1872 13.3227 17.3428 13.4386C17.3452 13.4404 17.3476 13.4421 17.35 13.4439C17.2248 13.4113 17.1291 13.3689 17.0585 13.3219C16.9184 13.2285 16.7928 13.0694 16.7092 12.7769ZM18.7102 9.01582C18.653 8.86867 18.5627 8.71508 18.4142 8.5976C18.5041 8.62639 18.5783 8.6624 18.6388 8.70273C18.7763 8.79442 18.907 8.96466 19.004 9.26426C19.1011 9.5645 19.1639 10.0057 19.1639 10.6059V11.4404C19.1639 12.0343 19.1111 12.4637 19.0142 12.7732C18.9173 13.0715 18.7869 13.2412 18.6496 13.3327C18.5836 13.3768 18.498 13.4163 18.3897 13.4467C18.3924 13.4447 18.3952 13.4426 18.398 13.4405C18.5534 13.3231 18.6485 13.1659 18.7085 13.0133C18.8244 12.7282 18.8526 12.3251 18.8526 11.9064V10.1074C18.8526 9.68977 18.8225 9.30459 18.7102 9.01582Z" stroke="black"/>
<path d="M14.7894 9.90489C14.8364 9.61266 14.9251 9.16378 15.0587 8.53391L15.5127 6.5H15.7425L14.7894 9.90489ZM14.4061 11.3428V13.4004H14.1273V11.3428V10.8428H13.9972L13.8874 10.4448H14.245H14.2775H14.6383L14.4246 11.208L14.4061 11.2742V11.3428ZM13.7239 9.85193L12.7992 6.5H13.0284L13.4636 8.52195L13.4639 8.52332C13.5754 9.03427 13.6618 9.47675 13.7239 9.85193Z" stroke="black"/>
<path d="M23.3576 13.4113H23.2678L23.2247 13.1309L23.1595 12.7069H23.0571V8.63501H23.3576V13.4113ZM21.2754 13.1487C21.3563 13.3104 21.4763 13.425 21.6153 13.4965C21.5631 13.5049 21.5086 13.5089 21.4517 13.5089C21.1978 13.5089 21.0803 13.4295 21.0085 13.3324C20.9215 13.2147 20.8354 12.9589 20.8354 12.4483V8.63501H21.1359V12.3724C21.1359 12.6538 21.168 12.9338 21.2754 13.1487Z" stroke="black"/>
</svg>
