<svg width="36" height="36" viewBox="0 0 36 36" fill="none" xmlns="http://www.w3.org/2000/svg">
<rect x="0.5" y="0.5" width="35" height="35" rx="17.5" stroke="black"/>
<path d="M8.34431 13.4312L8.34432 13.431C8.39681 12.2784 8.59261 11.6303 8.76422 11.1848L8.76486 11.1832C8.99407 10.5944 9.27545 10.1609 9.7185 9.71724C10.1615 9.27362 10.5949 8.99148 11.1852 8.763C11.6318 8.5889 12.2817 8.39489 13.4328 8.34257C14.6302 8.28749 14.9958 8.27662 18.0005 8.27662C21.0057 8.27662 21.3712 8.28841 22.5694 8.34256L22.5696 8.34257C23.7222 8.39506 24.3703 8.59086 24.8157 8.76247L24.8167 8.76284C25.4064 8.99142 25.84 9.27406 26.2833 9.71675C26.7277 10.1605 27.0084 10.5949 27.2375 11.1832M8.34431 13.4312L26.7715 11.3646M8.34431 13.4312C8.29015 14.6294 8.27837 14.9935 8.27837 18.0001C8.27837 21.0061 8.28924 21.3717 8.34431 22.5691L8.34431 13.4312ZM27.2375 11.1832L26.7715 11.3646M27.2375 11.1832C27.2374 11.1831 27.2374 11.183 27.2374 11.1829L26.7715 11.3646M27.2375 11.1832C27.4116 11.6297 27.6057 12.2797 27.658 13.431M26.7715 11.3646C26.926 11.7606 27.1087 12.3569 27.1585 13.4537M27.658 13.431C27.658 13.431 27.658 13.4309 27.658 13.4308L27.1585 13.4537M27.658 13.431C27.7131 14.6294 27.724 14.9941 27.724 18.0001C27.724 21.0061 27.7131 21.3707 27.658 22.5692M27.658 13.431L27.1585 13.4537M27.1585 13.4537L27.658 22.5692M27.658 22.5692C27.6055 23.7213 27.4103 24.3707 27.2378 24.8162M27.658 22.5692L27.2378 24.8162M13.3854 7.3176L13.3851 7.31761C12.2347 7.37 11.4708 7.55068 10.813 7.80664L10.8125 7.80681C10.1329 8.0705 9.56613 8.41896 8.99205 8.99212C8.41874 9.56453 8.0712 10.1319 7.8073 10.812L7.80716 10.8124C7.55115 11.4707 7.37049 12.2343 7.3181 13.3846L7.31809 13.3849C7.26318 14.5728 7.25049 14.9472 7.25049 18C7.25049 21.0528 7.26318 21.4272 7.31809 22.6151L7.3181 22.6154C7.37049 23.7658 7.55115 24.5293 7.80716 25.1876L7.80726 25.1879C8.07123 25.8678 8.41891 26.4358 8.992 27.0078C9.56584 27.5806 10.1328 27.9287 10.813 28.1934C11.4723 28.4494 12.235 28.63 13.3851 28.6824C14.574 28.7364 14.9481 28.75 18.0005 28.75C21.0533 28.75 21.4277 28.7373 22.6156 28.6824L22.6159 28.6824C23.7663 28.63 24.5298 28.4493 25.1881 28.1933C25.8679 27.9286 26.4352 27.5807 27.0089 27.0079C27.5819 26.4358 27.9289 25.868 28.1938 25.1876C28.4499 24.529 28.6314 23.7655 28.6829 22.6158L28.6829 22.6155C28.7369 21.4264 28.7496 21.0528 28.7496 18C28.7496 14.9472 28.7369 14.5727 28.6829 13.3846M13.3854 7.3176L25.3693 28.6593C26.109 28.3713 26.7361 27.9868 27.3622 27.3617C27.9883 26.7366 28.3718 26.1085 28.6598 25.3688C28.9379 24.6537 29.1287 23.8358 29.1824 22.6381C29.2369 21.4377 29.2496 21.0551 29.2496 18C29.2496 14.9449 29.2369 14.5614 29.1824 13.3618C29.1278 12.1641 28.9379 11.3458 28.6598 10.6312M13.3854 7.3176C14.5739 7.26269 14.9486 7.25 18.0014 7.25C21.0539 7.25 21.4286 7.26359 22.6168 7.31761L22.6171 7.31763C23.7659 7.36912 24.5294 7.55052 25.1891 7.8067C25.8681 8.07066 26.436 8.41829 27.0084 8.99156C27.5812 9.56534 27.9291 10.1326 28.1938 10.8125M13.3854 7.3176L28.6598 10.6312M28.6829 13.3846L29.1789 13.362L28.6829 13.3846C28.6829 13.3846 28.6829 13.3846 28.6829 13.3846ZM28.6829 13.3846C28.6305 12.2341 28.4498 11.4703 28.1938 10.8125M28.1938 10.8125C28.1939 10.8125 28.1939 10.8125 28.1939 10.8126L28.6598 10.6312M28.1938 10.8125L28.6598 10.6312M27.2378 24.8162L27.2375 24.817C27.0083 25.4057 26.7268 25.8395 26.2834 26.2824C25.8402 26.7252 25.4061 27.007 24.8174 27.2362M27.2378 24.8162L22.5695 27.6567C23.7209 27.6044 24.3709 27.4103 24.8174 27.2362M24.8174 27.2362L24.636 26.7702L24.8177 27.2361C24.8176 27.2361 24.8175 27.2361 24.8174 27.2362ZM23.1559 11.9946C23.1561 11.7692 23.2458 11.5531 23.4052 11.3938C23.5646 11.2344 23.7807 11.1449 24.0061 11.1447H24.0063C24.0063 11.1447 24.0064 11.1447 24.0065 11.1447C24.1745 11.1449 24.3387 11.1948 24.4784 11.2882C24.6182 11.3816 24.7271 11.5144 24.7913 11.6698C24.8556 11.8251 24.8724 11.996 24.8395 12.1609C24.8067 12.3258 24.7256 12.4772 24.6067 12.596C24.4878 12.7149 24.3363 12.7958 24.1714 12.8285C24.0065 12.8612 23.8356 12.8443 23.6803 12.7799C23.525 12.7155 23.3923 12.6065 23.299 12.4667C23.2057 12.3269 23.1559 12.1627 23.1559 11.9946ZM13.4327 27.6567L13.4555 27.1576L13.4325 27.6567C13.4326 27.6567 13.4327 27.6567 13.4327 27.6567ZM18.0005 13.7497C15.6532 13.7497 13.7511 15.653 13.7511 18C13.7511 20.347 15.6532 22.2503 18.0005 22.2503C20.3476 22.2503 22.2508 20.3471 22.2508 18C22.2508 15.6529 20.3476 13.7497 18.0005 13.7497ZM18.0005 23.2767C15.0861 23.2767 12.7237 20.9144 12.7237 18C12.7237 15.0856 15.0861 12.7233 18.0005 12.7233C20.9148 12.7233 23.2772 15.0856 23.2772 18C23.2772 20.9144 20.9148 23.2767 18.0005 23.2767ZM8.34433 22.5694C8.39665 23.72 8.59055 24.3698 8.76459 24.8163L8.34433 22.5694Z" fill="#E0E0E0" stroke="black"/>
</svg>
