<svg width="36" height="36" viewBox="0 0 36 36" fill="none" xmlns="http://www.w3.org/2000/svg">
<rect x="0.5" y="0.5" width="35" height="35" rx="17.5" stroke="black"/>
<path d="M28.9704 12.2572L28.9493 12.3275V12.343C28.8705 12.6522 28.6473 13.1442 28.3173 13.7508C27.9784 14.3739 27.5542 15.0696 27.1365 15.7239C26.7194 16.3771 26.3122 16.9836 26.009 17.4272C25.8575 17.6488 25.7322 17.8295 25.6449 17.9545C25.6013 18.017 25.5671 18.0656 25.544 18.0985L25.5177 18.1357L25.5111 18.145L25.5095 18.1473L25.5091 18.1478L25.5091 18.1479L25.9168 18.4374L25.5091 18.1479L25.5006 18.1598L25.4929 18.1722L25.4829 18.1881C25.3592 18.3857 25.1926 18.6516 25.1679 18.9606C25.1395 19.3156 25.2952 19.6189 25.5162 19.9047C25.6814 20.1328 25.9955 20.4403 26.2996 20.738C26.3149 20.7531 26.3303 20.7681 26.3456 20.7831C26.6898 21.1203 27.0548 21.4793 27.343 21.8199L27.3429 21.82L27.351 21.8291C27.9118 22.46 28.3944 23.0315 28.764 23.5317C29.1376 24.0372 29.3675 24.4331 29.4611 24.7204C29.5411 24.9985 29.4751 25.0749 29.4685 25.0827C29.4462 25.1086 29.3427 25.1891 29.0304 25.1891H26.4048C26.2285 25.1891 26.103 25.1558 25.9841 25.0935C25.8544 25.0256 25.7103 24.9116 25.5133 24.7141C25.3531 24.5534 25.1781 24.3588 24.9589 24.1149C24.9059 24.0559 24.8503 23.9941 24.7916 23.9291C24.4955 23.601 24.137 23.2102 23.6833 22.7566L23.6834 22.7566L23.6768 22.7503C22.1099 21.2395 21.3163 20.9135 20.7147 20.9135C20.4418 20.9135 20.0474 20.9411 19.7838 21.2686C19.6619 21.4202 19.6023 21.596 19.5703 21.7615C19.5384 21.9265 19.5283 22.1128 19.5283 22.3133V24.6679C19.5283 24.945 19.4827 24.9756 19.4391 25.0048L19.438 25.0056C19.3154 25.0878 18.9872 25.1891 18.1528 25.1891C15.5702 25.1891 12.6537 23.6121 10.555 20.5992L10.555 20.5992L10.5518 20.5946C8.94646 18.3444 7.92872 16.3749 7.31388 14.8905C7.00635 14.148 6.80051 13.5291 6.67233 13.0592C6.54024 12.5748 6.5 12.2824 6.5 12.1785C6.5 12.1107 6.50684 12.0665 6.51494 12.0389C6.52188 12.0152 6.52814 12.0087 6.52968 12.0071C6.52971 12.0071 6.52974 12.0071 6.52977 12.007L6.52982 12.007C6.53138 12.0053 6.54669 11.9893 6.59883 11.9722C6.65498 11.9538 6.74971 11.9358 6.90021 11.9358H9.52582C9.78486 11.9358 9.87646 11.9902 9.93197 12.0413C10.0129 12.1159 10.1063 12.2674 10.2283 12.6196C10.8826 14.5252 11.7615 16.3128 12.596 17.6316C13.0124 18.2896 13.4265 18.8449 13.8057 19.2423C13.9948 19.4405 14.1865 19.6115 14.3761 19.7363C14.5564 19.855 14.7864 19.9664 15.0404 19.9664C15.1557 19.9664 15.309 19.9544 15.463 19.8849C15.6309 19.8091 15.7588 19.6839 15.8464 19.5258C15.9958 19.2561 16.0272 18.8842 16.0272 18.4649V14.5983V14.5847L16.0265 14.571C15.9719 13.5748 15.6725 13.0013 15.3719 12.5924C15.3062 12.503 15.2416 12.423 15.188 12.3567L15.1775 12.3437C15.1187 12.2709 15.0775 12.2191 15.0447 12.1716C14.9846 12.0846 14.9841 12.0563 14.9841 12.0393C14.9841 12.0323 14.9889 12.0072 15.0142 11.9821C15.034 11.9623 15.0737 11.9358 15.1521 11.9358H19.2781C19.3754 11.9358 19.4248 11.9492 19.4454 11.9573C19.4581 11.9624 19.4597 11.9649 19.4609 11.9667C19.4611 11.9669 19.4612 11.9672 19.4614 11.9674C19.478 11.9895 19.5283 12.0907 19.5283 12.4009V17.6026C19.5283 18.2477 19.8379 18.8533 20.4367 18.8533C21.01 18.8533 21.4308 18.4839 22.0142 17.9005L22.024 17.8906L22.0333 17.8803C23.0187 16.779 23.8476 15.3958 24.4254 14.3038C24.7158 13.7548 24.9461 13.2731 25.104 12.9281C25.183 12.7554 25.244 12.6168 25.2855 12.5206C25.3063 12.4726 25.3221 12.4351 25.333 12.4094L25.3454 12.3796L25.3484 12.3725C25.4103 12.2288 25.4834 12.1272 25.5723 12.0599C25.6556 11.997 25.7898 11.9358 26.0297 11.9358H28.6553C28.8994 11.9358 28.9825 11.9826 29.0022 11.9972C29.0072 12.0139 29.0222 12.0848 28.9704 12.2572Z" fill="black" stroke="black"/>
</svg>
