<svg width="36" height="36" viewBox="0 0 36 36" fill="none" xmlns="http://www.w3.org/2000/svg">
<rect x="0.5" y="0.5" width="35" height="35" rx="17.5" stroke="black"/>
<mask id="path-2-inside-1_91_25" fill="white">
<path d="M19.2017 29.9999V19.0523H22.8764L23.4265 14.7859H19.2017V12.0619C19.2017 10.8267 19.5448 9.98482 21.3162 9.98482L23.5755 9.98377V6.16793C23.1846 6.11613 21.8435 6 20.2834 6C17.026 6 14.796 7.98818 14.796 11.6396V14.786H11.1118V19.0524H14.7959V30L19.2017 29.9999Z"/>
</mask>
<path d="M19.2017 29.9999L19.202 42.0695L31.2713 42.0692V29.9999H19.2017ZM19.2017 19.0523V6.98273H7.13213V19.0523H19.2017ZM22.8764 19.0523V31.1219H33.4896L34.8469 20.5959L22.8764 19.0523ZM23.4265 14.7859L35.397 16.3295L37.1524 2.71629H23.4265V14.7859ZM19.2017 14.7859H7.13213V26.8555H19.2017V14.7859ZM21.3162 9.98482L21.3162 22.0544L21.3218 22.0544L21.3162 9.98482ZM23.5755 9.98377L23.581 22.0534L35.6451 22.0478V9.98377H23.5755ZM23.5755 6.16793H35.6451V-4.40768L25.1611 -5.79705L23.5755 6.16793ZM14.796 14.786V26.8556H26.8656V14.786H14.796ZM11.1118 14.786V2.71641H-0.957774V14.786H11.1118ZM11.1118 19.0524H-0.957774V31.122H11.1118V19.0524ZM14.7959 19.0524H26.8655V6.98285H14.7959V19.0524ZM14.7959 30H2.72628V42.0699L14.7962 42.0696L14.7959 30ZM31.2713 29.9999V19.0523H7.13213V29.9999H31.2713ZM19.2017 31.1219H22.8764V6.98273H19.2017V31.1219ZM34.8469 20.5959L35.397 16.3295L11.4561 13.2423L10.9059 17.5087L34.8469 20.5959ZM23.4265 2.71629H19.2017V26.8555H23.4265V2.71629ZM31.2713 14.7859V12.0619H7.13213V14.7859H31.2713ZM31.2713 12.0619C31.2713 12.2292 31.2689 12.9796 31.0276 13.9982C30.7695 15.0876 30.1804 16.727 28.8276 18.3337C25.8272 21.8974 22.0388 22.0544 21.3162 22.0544V-2.08477C18.8222 -2.08477 13.9765 -1.50679 10.3617 2.78662C7.13897 6.61442 7.13213 10.9275 7.13213 12.0619H31.2713ZM21.3218 22.0544L23.581 22.0534L23.5699 -2.08581L21.3106 -2.08477L21.3218 22.0544ZM35.6451 9.98377V6.16793H11.5059V9.98377H35.6451ZM25.1611 -5.79705C24.1729 -5.92801 22.2963 -6.06959 20.2834 -6.06959V18.0696C20.7759 18.0696 21.2512 18.0883 21.6293 18.1115C21.8152 18.1229 21.9591 18.1342 22.0502 18.1423C22.171 18.153 22.1357 18.1522 21.9898 18.1329L25.1611 -5.79705ZM20.2834 -6.06959C16.2054 -6.06959 11.527 -4.78413 7.83371 -1.1337C4.10303 2.55362 2.7264 7.31863 2.7264 11.6396H26.8656C26.8656 12.3091 26.604 14.2543 24.8026 16.0347C23.0387 17.7782 21.104 18.0696 20.2834 18.0696V-6.06959ZM2.7264 11.6396V14.786H26.8656V11.6396H2.7264ZM14.796 2.71641H11.1118V26.8556H14.796V2.71641ZM-0.957774 14.786V19.0524H23.1814V14.786H-0.957774ZM11.1118 31.122H14.7959V6.98285H11.1118V31.122ZM2.72628 19.0524V30H26.8655V19.0524H2.72628ZM14.7962 42.0696L19.202 42.0695L19.2014 17.9303L14.7956 17.9304L14.7962 42.0696Z" fill="black" mask="url(#path-2-inside-1_91_25)"/>
</svg>
